# xmcd
#
# Track frame offsets:
#	150
#	19795
#	31705
#	44772
#	59875
#	75800
#	87305
#	99387
#	114107
#	126392
#	143090
#	159305
#	170942
#	180132
#	191160
#	207180
#	221127
#	239932
#	256100
#	268777
#	281775
#	301212
#
# Disc length: 4197
#
# Revision: 5
# Processed by: cddbd v1.5.1PL0 Copyright (c) Steve Scherf et al.
# Submitted via: CDex 1.51
# Normalized: r4:TDELIM( - )
#
DISCID=3e106316
DTITLE=Country Album - The Best Country Album in the world ... ever !
DYEAR=1900
DGENRE=Country
TTITLE0=Kenny Rogers - Coward of the county
TTITLE1=Dolly Parton - Jolene
TTITLE2=Lynn Anderson - Rose garden
TTITLE3=Don Williams - Recall a Gipsy Woman
TTITLE4=Billie Jo Spears - Blanket on the ground
TTITLE5=Bobbie Gentry and Glen Campbell - All I have to do is dream
TTITLE6=Tammy  Wynette - Stand by your man
TTITLE7=Olivia Newton John - Banks of the Ohio
TTITLE8=Patsy Cline - Crazy
TTITLE9=Don McLean - Crying
TTITLE10=The Charlie Daniels Band - The devil went down to Georgia
TTITLE11=Johny Cash - Ring of fire
TTITLE12=Johnie Alan - The promised land
TTITLE13=Roger Miller - King of the road
TTITLE14=Joe South - Games people play
TTITLE15=Dolly Parton - I will always love you
TTITLE16=Jimmy Buffet - Margaritaville
TTITLE17=Kenny Rogers - Lucille
TTITLE18=Patsy Cline - I fall to pieces
TTITLE19=Dr. Hook - A little bit more
TTITLE20=Kris Kristoferson - Me and Bobby McGee
TTITLE21=Willie Nelson - Funny how time slips away
EXTD=1994 EMI Records Ltd.
EXTT0=Kenny Rogers
EXTT1=Dolly Parton
EXTT2=Lynn Anderson
EXTT3=Don Williams
EXTT4=Billie Joe Spears
EXTT5=Bobbie Gentry and Glen Campbell
EXTT6=Tammy Wynette
EXTT7=Olivia Newton - John
EXTT8=Patsy Cline
EXTT9=Don McLean
EXTT10=The Charlie Daniels Band
EXTT11=Johny Cash
EXTT12=Johnie Allan
EXTT13=Roger Miller
EXTT14=Joe South
EXTT15=Dolly Parton
EXTT16=Jimmy Buffet
EXTT17=Kenny Rogers
EXTT18=Patsy Cline
EXTT19=Dr. Hook
EXTT20=Kris Kristoferson
EXTT21=Willie Nelson
PLAYORDER=
